<?xml version="1.0" encoding="UTF-8" standalone="no"?><!DOCTYPE svg PUBLIC "-//W3C//DTD SVG 1.1//EN" "http://www.w3.org/Graphics/SVG/1.1/DTD/svg11.dtd"><svg width="100%" height="100%" viewBox="0 0 3542 1209" version="1.1" xmlns="http://www.w3.org/2000/svg" xmlns:xlink="http://www.w3.org/1999/xlink" xml:space="preserve" xmlns:serif="http://www.serif.com/" style="fill-rule:evenodd;clip-rule:evenodd;stroke-linejoin:round;stroke-miterlimit:2;"><g><path d="M2384.79,373.525c2.25,4.889 3.5,4.639 3.75,-0.75c1.139,-24.639 1.82,-46.777 2.042,-66.416c0.972,-86.695 1.417,-167.389 1.333,-242.084c0,-12.25 1.542,-24.458 2.042,-36.625c0.066,-1.811 1.563,-3.27 3.375,-3.291l234,-2.292c0.047,-0.001 0.095,-0.001 0.143,-0.001c5.097,0.009 9.284,4.23 9.275,9.35c-0,0.05 -0.001,0.101 -0.001,0.151c-2.167,135.667 -3.931,269.819 -5.292,402.458c-0.361,33.528 -2.764,58.792 -7.208,75.792c-7.556,28.861 -19.334,54.875 -35.334,78.042c-9.458,13.708 -19.583,28.833 -31.375,40.375c-59.333,58.111 -131.528,87.652 -216.583,88.625c-64.722,0.722 -123.097,-17.778 -175.125,-55.5c-44.139,-32.056 -75.847,-72.723 -95.125,-122c-2.972,-7.667 -6.32,-20.32 -10.042,-37.959c-2.805,-13.277 -4.278,-26.639 -4.416,-40.083c-0.334,-30.083 3.736,-57.958 12.208,-83.625c6.667,-20.139 17.125,-40.889 31.375,-62.25c13.5,-20.25 28.708,-37.708 45.625,-52.375c25.389,-21.944 51.778,-39.056 79.167,-51.333c25.694,-11.5 53.388,-19.278 83.083,-23.334c4.055,-0.555 8.125,-0.569 12.208,-0.041c1.361,0.166 2.236,0.889 2.625,2.166c17.361,54.695 34.945,109.584 52.75,164.667c2,6.167 2.792,12.375 5.5,18.333Zm4.321,77.667c-0.482,-19.697 -20.114,-35.435 -43.49,-34.864c-23.376,0.571 -42.216,17.25 -41.735,36.947c0.482,19.697 20.114,35.436 43.49,34.864c23.376,-0.571 42.216,-17.249 41.735,-36.947Z" style="fill:#25b;fill-rule:nonzero;"/><path d="M872.8,30.289c0.007,-4.024 -3.255,-7.297 -7.279,-7.304l-239.25,-0.418c-4.024,-0.007 -7.297,3.255 -7.304,7.279l-1.188,680.666c-0.007,4.024 3.254,7.297 7.279,7.304l239.249,0.418c4.025,0.007 7.298,-3.255 7.305,-7.279l1.188,-680.666Z" style="fill:#25b;"/><path d="M2807.09,25.124c70.123,-2.327 128.583,41.856 130.466,98.603c1.882,56.747 -53.521,104.707 -123.645,107.033c-70.123,2.327 -128.583,-41.856 -130.466,-98.603c-1.882,-56.747 53.521,-104.707 123.645,-107.033Z" style="fill:#f33;"/><path d="M269.748,373.942c-2.334,-3.361 -3.5,-3 -3.5,1.083l-0.834,339.209c-0.023,2.673 -2.053,4.936 -4.708,5.25c-4.778,0.555 -9.681,0.833 -14.708,0.833c-74.473,0.278 -147.264,-0.167 -218.375,-1.333c-3.945,-0.056 -5.931,-2.056 -5.959,-6c-0.5,-133.723 -0.861,-263.264 -1.083,-388.625c-0.083,-33.584 1.722,-59.667 5.417,-78.25c12.75,-64.584 46.222,-117.417 100.416,-158.5c24.445,-18.528 49.986,-32.25 76.625,-41.167c11.028,-3.694 22.722,-7.111 35.084,-10.25c12.805,-3.25 25.486,-5.5 38.041,-6.75c67.861,-6.75 131.847,8.25 191.959,45c22.611,13.806 43.194,31.556 61.75,53.25c31.083,36.361 50.638,78.653 58.666,126.875c4.75,28.444 4.584,55.833 -0.5,82.167c-5.778,29.75 -17,59.166 -33.666,88.25c-11.889,20.722 -29.084,41.027 -51.584,60.916c-45.361,40 -99.361,64 -162,72c-6.111,0.778 -9.972,-1.597 -11.583,-7.125c-9.25,-31.791 -20.542,-61.625 -29.75,-93c-4.167,-14.194 -9.125,-28.777 -14.875,-43.75c-5.125,-13.291 -7.083,-28.75 -14.833,-40.083Zm55.647,-23.933c29.718,-9.944 45.812,-43.116 35.65,-73.485c-10.161,-30.368 -42.977,-47.176 -72.695,-37.232c-29.718,9.944 -45.811,43.115 -35.65,73.484c10.161,30.369 42.977,47.176 72.695,37.233Z" style="fill:#25b;fill-rule:nonzero;"/><path d="M3280.58,526.192c-1.361,0.056 -2.181,0.819 -2.458,2.292c-2.375,12.958 -7.792,24.208 -11.875,36.458c-15.639,47.083 -30.945,93.528 -45.917,139.333c-0.833,2.528 -2.583,3.778 -5.25,3.75c-14.861,-0.139 -29.597,-2.277 -44.208,-6.416c-38.139,-10.778 -68.07,-24.25 -89.792,-40.417c-17.667,-13.125 -35.75,-27.083 -50.25,-44.083c-7.167,-8.417 -13.389,-16.389 -18.667,-23.917c-24,-34.25 -38.43,-71.181 -43.291,-110.792c-2.792,-22.791 -2.584,-54.625 2,-79.125c6.555,-35 19.791,-67.486 39.708,-97.458c37.417,-56.333 90.292,-94.458 154.417,-114.625c24.611,-7.722 49.041,-12 73.291,-12.833c86.778,-2.945 160.375,28.291 220.792,93.708c4.694,5.111 11.75,14.833 21.167,29.167c7.333,11.139 13.125,21.597 17.375,31.375c16.361,37.777 24.166,77.416 23.416,118.916c-1.639,89.25 -3.403,176.125 -5.291,260.625c-0.068,3.139 -2.749,5.689 -6,5.709l-222.542,0.083c-0,-0 -0,-0 -0.001,-0c-3.657,-0 -6.666,-3.009 -6.666,-6.667c-0,-0.027 -0,-0.055 0,-0.083l2.75,-182.375c0.001,-0.02 0.001,-0.041 0.001,-0.061c-0.01,-1.418 -1.203,-2.575 -2.643,-2.565c-0.022,-0 -0.044,0 -0.066,0.001Zm-15.292,-112.292c-21,-8.708 -54.041,-3.583 -58.833,23.292c-4.167,23.375 10.458,40.5 33.125,42.583c13.805,1.278 26.042,-2.708 36.708,-11.958c4.25,-3.722 6.584,-8.042 7,-12.958c0.75,-9.5 2.5,-23.5 -4.5,-31.167c-4.111,-4.5 -8.611,-7.764 -13.5,-9.792Z" style="fill:#25b;fill-rule:nonzero;"/><path d="M1210.54,532.025c-1.305,-3.833 -2.458,-3.791 -3.458,0.125c-3.556,14.195 -7.889,28.348 -13,42.459c-15.792,43.541 -28.833,87 -43.625,132.666c-0.528,1.611 -1.639,2.445 -3.333,2.5c-9.695,0.334 -19.278,-0.5 -28.75,-2.5c-28.459,-6 -59.667,-16.166 -84.959,-31.083c-59.944,-35.333 -100.555,-85.528 -121.833,-150.583c-9.958,-30.459 -11.625,-62.459 -10.25,-95.375c0.722,-17 2.889,-32.098 6.5,-45.292c13.25,-48.417 36.319,-89.125 69.208,-122.125c39.75,-39.889 85.945,-64.708 138.584,-74.458c45.888,-8.528 87.597,-8.223 125.125,0.916c31.305,7.611 62.305,21.736 93,42.375c18.75,12.584 33.625,29.417 49.458,45.875c14.722,15.334 28.611,37.361 41.667,66.084c5.222,11.472 10.347,26.083 15.375,43.833c5.222,18.472 7.472,37.944 6.75,58.417c-0.195,5.166 -0.334,10.486 -0.417,15.958c-1.472,83.75 -2.333,168.597 -2.583,254.542c-0,1.76 -1.449,3.208 -3.209,3.208l-222.083,-0.125c-3.596,0 -6.561,-2.946 -6.583,-6.542c-0.5,-58.777 -0.639,-116.527 -0.417,-173.25c-0,-2.805 -0.389,-5.347 -1.167,-7.625Zm1.995,-87.652c-0.031,-17.486 -14.445,-31.85 -31.931,-31.819l-15.5,0.027c-17.465,0.03 -31.819,14.409 -31.819,31.875c-0,0.018 -0,0.037 -0,0.055l0.011,6.083c0.03,17.486 14.444,31.85 31.93,31.82l15.5,-0.027c17.465,-0.031 31.82,-14.41 31.82,-31.875c-0,-0.019 -0,-0.037 -0,-0.056l-0.011,-6.083Z" style="fill:#25b;fill-rule:nonzero;"/><path d="M1797.62,664.4c-0.099,-1.112 -1.042,-1.975 -2.159,-1.975c-0.468,0 -0.925,0.152 -1.3,0.434c-13,9.625 -25.208,20.416 -39.791,28.208c-27.973,14.944 -57.903,22.361 -89.792,22.25c-86.792,-0.25 -155.292,-65.167 -174.167,-146.208c-2.5,-10.792 -4.958,-21.875 -4.958,-33.042c-0.028,-93.528 0.972,-187.431 3,-281.708c0.067,-2.718 2.304,-4.917 5,-4.917c64.889,-0.167 127.292,-0.014 187.208,0.458c11.417,0.111 23.014,0.445 34.792,1c1.72,0.067 3.105,1.507 3.125,3.25c0.472,61.917 0.236,128.5 -0.708,199.75c-0.167,11.375 4.583,23.834 14.583,30.167c17.055,10.833 34.444,10.639 52.167,-0.583c10.388,-6.556 15.652,-16.459 15.791,-29.709c0.528,-61.389 1.097,-125.111 1.709,-191.166c0.027,-3.917 0.208,-8 0.541,-12.25c0.111,-1.445 0.861,-2.334 2.25,-2.667c4.445,-1.111 9.084,-1.653 13.917,-1.625c61.305,-0 129.542,0.056 204.708,0.167c4.528,-0 6.792,2.264 6.792,6.791c0.111,49.361 -0.292,99.973 -1.208,151.834c-1.667,95.139 -2.334,187.847 -2,278.125c0.166,44.333 -2.375,77.375 -13,115.75c-12.125,43.833 -37.5,79.791 -68.292,112.458c-4.333,4.583 -9.056,8.542 -14.167,11.875c-7.166,4.667 -12,11.208 -19.208,16.25c-27.917,19.667 -56.361,34.306 -85.333,43.917c-23.584,7.833 -45.875,14.5 -69,17.25c-77.584,9.25 -165.042,-5.834 -228.334,-53.834c-1.847,-1.403 -2.617,-3.83 -1.916,-6.041c7.541,-23.959 15.458,-46.334 22.25,-69.709c7.555,-26.027 15.583,-51.777 24.083,-77.25c1.639,-4.944 3.389,-9.791 5.25,-14.541c0.583,-1.417 1.514,-1.709 2.792,-0.875c39.305,26.139 80.125,33.389 122.458,21.75c29.694,-8.195 52.667,-22.681 68.917,-43.459c19.277,-24.666 27.277,-54.708 24,-90.125Z" style="fill:#25b;fill-rule:nonzero;"/><path d="M2677.29,712.609l5.834,-450.625c0.045,-3.626 3.04,-6.584 6.666,-6.584l235.75,-0.083c0,-0 0.001,-0 0.001,-0c3.657,-0 6.666,3.009 6.666,6.667c0,0.027 0,0.055 -0,0.083l-6.833,451.083c-0.046,3.626 -3.041,6.584 -6.667,6.584l-234.75,-0.375c-0,-0 -0,-0 -0.001,-0c-3.657,-0 -6.666,-3.01 -6.666,-6.667c-0,-0.028 -0,-0.056 0,-0.083Z" style="fill:#25b;fill-rule:nonzero;"/><path d="M2063.62,813.192l1443.75,-1.458c0.014,-0 0.028,-0.001 0.042,-0.001c3.612,0 6.584,2.972 6.584,6.584c-0,0.042 -0.001,0.083 -0.001,0.125l-1.667,77.583c-0.068,3.564 -3.019,6.459 -6.583,6.459l-1443.04,0.791c-0,0 -0,0 -0.001,0c-3.611,0 -6.583,-2.972 -6.583,-6.583c0,-0.028 0,-0.056 0.001,-0.083l0.916,-76.917c0.046,-3.58 3.003,-6.5 6.584,-6.5Z" style="fill:#099;fill-rule:nonzero;"/><path d="M42.914,813.609c179.25,0.333 359.417,3.166 536.459,0.583c31.194,-0.472 59,-0.708 83.416,-0.708c156.75,-0.042 314.25,-1.5 471.792,-0.125c104.389,0.916 205.611,1.472 303.667,1.666c3.694,0.028 5.541,1.889 5.541,5.584l-0.041,75.708c-0,3.889 -1.945,5.889 -5.834,6c-4.444,0.167 -9.028,0.292 -13.75,0.375c-119.833,2.222 -240.847,2.639 -363.041,1.25c-84.945,-0.944 -168.792,-1.417 -251.542,-1.417c-13.583,0 -27.125,1.125 -40.667,1.042c-123.166,-0.861 -246.819,-0.514 -370.958,1.042c-122.542,1.583 -245.333,-0.917 -373.75,-2.334c-2.056,-0.027 -3.083,-1.069 -3.083,-3.125l0.083,-75.791c-0,-3.667 1.736,-6.098 5.208,-7.292c4.834,-1.639 10.334,-2.458 16.5,-2.458Z" style="fill:#099;fill-rule:nonzero;"/><path d="M2571.46,1120.69c-14.667,-2.875 -30.375,-9.708 -34.208,-25.375c-5.139,-20.861 1.763,-36.181 20.708,-45.958c17.194,-8.861 34.819,-9.806 52.875,-2.834c13.75,5.334 23,16.625 25.5,30.667c0.472,2.694 -0.625,4.361 -3.292,5c-6.694,1.528 -13.222,1.472 -19.583,-0.167c-1.611,-0.416 -2.778,-1.347 -3.5,-2.791l-3.583,-7.25c-0.612,-1.195 -1.473,-2.139 -2.584,-2.834c-8.666,-5.291 -31.583,-8.708 -38.125,3.459c-6.416,11.875 0.625,19.75 11.792,22.75c24.917,6.708 55.792,5.291 63.042,37.416c1.694,7.5 0.43,15.528 -3.792,24.084c-3,6.139 -7.472,11.097 -13.417,14.875c-14.055,8.916 -28.25,12.722 -42.583,11.416c-22.292,-2.041 -49.125,-17.458 -46.708,-42.5c0.109,-1.4 1.323,-2.486 2.75,-2.458l18.666,0.292c1.571,0.025 2.941,1.104 3.334,2.625c2.666,10.083 8.333,18 19.916,19c9.334,0.777 17.417,-0.07 24.25,-2.542c16,-5.792 12.584,-25.625 -2.5,-29.125c-9.708,-2.25 -19.291,-5.875 -28.958,-7.75Z" style="fill-rule:nonzero;"/><path d="M1780.5,1142.65c7.416,15.875 26.916,21.709 42.583,15.125c8.083,-3.375 10.583,-12.333 15.333,-19.125c0.889,-1.25 2.097,-1.93 3.625,-2.041c6,-0.473 12.57,0.069 19.709,1.625c1.611,0.361 2.222,1.347 1.833,2.958c-6.278,24.889 -22.167,38.681 -47.667,41.375c-48.125,5.125 -74.875,-36.875 -69.333,-81c3.611,-28.917 18.167,-47.611 43.667,-56.083c15.722,-5.195 32.222,-3.431 49.5,5.291c12.75,6.459 19.708,20.125 21.916,33.625c0.25,1.584 -0.389,2.584 -1.916,3c-15.084,4.334 -24.875,0.236 -29.375,-12.291c-0.556,-1.556 -1.487,-2.834 -2.792,-3.834c-3.292,-2.458 -6.375,-5.083 -10.583,-5.833c-45.5,-8.042 -48.959,50.667 -36.5,77.208Z" style="fill-rule:nonzero;"/><path d="M2361.21,1160.61c9.25,-0.667 15.889,-3.486 19.917,-8.459c7.916,-9.75 -0.042,-21.916 -10.917,-24.291c-1.889,-0.389 -3.681,-1.014 -5.375,-1.875c-0.972,-0.5 -2.014,-0.82 -3.125,-0.959c-9.695,-1.305 -20.056,-4.069 -31.083,-8.291c-9.125,-3.5 -16.125,-7.459 -20.584,-16.75c-7.333,-15.278 -4.736,-29.389 7.792,-42.334c6.5,-6.666 16.292,-12.541 25.667,-14.125c12.361,-2.083 24.166,-1.444 35.416,1.917c14.292,4.292 28.417,18.833 26.834,35.25c-0.167,1.667 -1.07,2.681 -2.709,3.042c-13.305,2.889 -22.041,-0.986 -26.208,-11.625c-0.775,-1.924 -2.269,-3.478 -4.167,-4.334c-6.833,-3.083 -15.069,-3.944 -24.708,-2.583c-15.958,2.25 -19.708,24.917 -2.875,29.125c11.778,2.889 23.472,5.556 35.083,8c17.167,3.583 27.403,13.875 30.709,30.875c1.444,7.444 0.319,15.194 -3.375,23.25c-2.973,6.472 -7.431,11.597 -13.375,15.375c-11.306,7.222 -23.403,10.931 -36.292,11.125c-25.778,0.389 -43.264,-10.611 -52.458,-33c-3.389,-8.278 -0.625,-12.097 8.291,-11.458c1.528,0.111 3.028,0.027 4.5,-0.25c7.445,-1.417 12.389,1.444 14.834,8.583c3.555,10.333 12.958,14.931 28.208,13.792Z" style="fill-rule:nonzero;"/><path d="M623.164,1164.94l6.417,6.333c0.748,0.736 1.169,1.743 1.169,2.792c0,1.049 -0.421,2.056 -1.169,2.792l-8.375,8.375c-1.445,1.444 -2.806,1.375 -4.083,-0.209c-2.889,-3.639 -6.278,-6.472 -10.167,-8.5c-1.528,-0.805 -3.056,-0.819 -4.583,-0.041c-11.612,5.861 -25.348,7.986 -41.209,6.375c-24,-2.417 -45.25,-23.75 -50.833,-46.084c-2.25,-9.027 -3.139,-19.264 -2.667,-30.708c0.445,-10.75 3.167,-20.639 8.167,-29.667c9.667,-17.472 23.097,-27.861 40.292,-31.166c12.416,-2.389 24.18,-1.764 35.291,1.875c12.195,4 21.875,11.722 29.042,23.166c12.083,19.417 19.375,47.042 9.792,68.584c-2.862,6.472 -5.667,12.916 -8.417,19.333c-0.979,2.306 -0.449,4.989 1.333,6.75Zm-44.333,-21.375l6.583,-7.708c1.639,-1.917 3.472,-2.125 5.5,-0.625l7.292,5.375c0.08,0.059 0.163,0.113 0.25,0.161c1.137,0.636 2.605,0.207 3.252,-0.951c0.046,-0.081 0.087,-0.166 0.123,-0.252c6.139,-15.25 6.5,-31.139 1.083,-47.667c-12.083,-36.916 -58.041,-33.583 -66.916,3.625c-7.334,30.625 5.333,72.834 45.083,64.667c0.119,-0.022 0.236,-0.055 0.35,-0.097c1.114,-0.414 1.683,-1.69 1.261,-2.825c-0.042,-0.113 -0.093,-0.223 -0.153,-0.328l-4.25,-7.5c-1.194,-2.083 -1.014,-4.042 0.542,-5.875Z" style="fill-rule:nonzero;"/><path d="M852.539,1151.65c7.722,7.973 17.709,10.931 29.959,8.875c13.041,-2.166 17.333,-11 21.5,-21.833c0.111,-0.278 0.319,-0.431 0.625,-0.458c10.194,-0.611 18.666,-0.417 25.416,0.583c0.016,0.002 0.032,0.004 0.048,0.008c0.268,0.058 0.437,0.344 0.375,0.635c-0.002,0.008 -0.004,0.016 -0.006,0.024c-7.958,29.916 -29.917,46.416 -61.25,44.208c-30.75,-2.167 -52.042,-28.125 -56.667,-57.5c-4.472,-28.472 3.82,-51.889 24.875,-70.25c12.25,-10.667 28.611,-14.361 49.084,-11.083c20.583,3.277 33.986,15.486 40.208,36.625c1.194,4.027 -0.292,6.347 -4.458,6.958c-4.834,0.722 -9.598,0.833 -14.292,0.333c-2.917,-0.305 -5,-1.777 -6.25,-4.416c-4.5,-9.459 -11.958,-18.625 -23.333,-19.25c-17.278,-0.945 -28.695,6.333 -34.25,21.833c-4.639,12.944 -5.778,25.944 -3.417,39c2,11.056 5.944,19.625 11.833,25.708Z" style="fill-rule:nonzero;"/><path d="M1140.09,1050.46c0.029,-2.828 -2.243,-5.149 -5.071,-5.178l-16.666,-0.175c-2.829,-0.029 -5.149,2.243 -5.179,5.071l-1.261,120.41c-0.029,2.829 2.243,5.149 5.072,5.179l16.665,0.174c2.829,0.03 5.149,-2.242 5.179,-5.071l1.261,-120.41Z"/><path d="M2018.02,1048.5c0.022,-2.139 -1.696,-3.893 -3.835,-3.915l-19.165,-0.201c-2.139,-0.023 -3.893,1.696 -3.915,3.834l-1.29,123.16c-0.023,2.139 1.695,3.893 3.834,3.915l19.166,0.201c2.138,0.022 3.893,-1.696 3.915,-3.834l1.29,-123.16Z"/><path d="M2796.5,1073.03l0.291,18.209c0.022,2.376 1.958,4.33 4.334,4.375l53.75,1c2.392,0.042 4.338,2.022 4.338,4.416c-0,0.069 -0.002,0.139 -0.005,0.209l-0.583,13.166c-0.11,2.328 -2.045,4.189 -4.375,4.209l-54.042,0.291c-2.392,0.023 -4.353,1.984 -4.375,4.375l-0.125,25.25c-0,2.408 1.968,4.394 4.375,4.417l64.458,0.542c2.41,0.018 4.382,2.006 4.382,4.416c0,0.084 -0.002,0.167 -0.007,0.25l-0.708,13.5c-0.131,2.312 -2.059,4.149 -4.375,4.167l-90.875,0.167c-0.014,-0 -0.028,-0 -0.043,-0c-2.422,-0 -4.416,-1.994 -4.416,-4.417c-0,-0.028 0,-0.056 0.001,-0.083l1.708,-122.042c0.023,-2.407 2.009,-4.375 4.417,-4.375l90.958,0.25c2.392,-0 4.371,1.942 4.417,4.333l0.208,12.75c0.046,2.408 -1.885,4.433 -4.292,4.5l-65.083,1.625c-2.391,0.045 -4.334,2.024 -4.334,4.416c-0,0.028 0,0.056 0.001,0.084Z" style="fill-rule:nonzero;"/><path d="M2984.5,1094.73c-1.695,4.277 -3.153,8.68 -4.375,13.208c-6,22.444 -11.75,43.542 -17.25,63.292c-0.889,3.172 -3.789,5.39 -7.084,5.416l-16.75,0.125c-3.877,0.02 -7.287,-2.628 -8.208,-6.375l-18.75,-75.25c-0.333,-1.277 -1.056,-2.264 -2.167,-2.958l-1.291,-0.792c-1.112,-0.694 -1.625,-0.375 -1.542,0.959c1.944,26.611 2.403,52.5 1.375,77.666c-0.222,5.167 -2.931,7.611 -8.125,7.334l-11.417,-0.667c-5.111,-0.278 -7.625,-2.972 -7.541,-8.083l1.5,-114.542c0.055,-5.778 2.986,-8.667 8.791,-8.667l27.125,0.084c2.72,0.004 5.121,1.856 5.834,4.5l20.5,78.791c1.527,5.917 3.138,5.931 4.833,0.042l22.375,-78.292c0.972,-3.416 3.25,-5.125 6.833,-5.125l31.459,0.125c-0,0 -0,0 -0,0c1.691,0 3.083,1.392 3.083,3.084c0,0.014 0,0.027 -0,0.041l-1.708,122.75c-0.028,3.667 -1.889,5.473 -5.584,5.417l-14.25,-0.167c-3.861,-0.055 -5.736,-2 -5.625,-5.833l2.125,-75.25c0.222,-8.056 -1.166,-8.333 -4.166,-0.833Z" style="fill-rule:nonzero;"/><path d="M799.015,1053.02c0.017,-3.173 -2.546,-5.763 -5.72,-5.78l-16.083,-0.084c-3.173,-0.017 -5.763,2.546 -5.78,5.72l-0.619,118.165c-0.016,3.173 2.547,5.763 5.72,5.78l16.083,0.084c3.174,0.016 5.764,-2.547 5.78,-5.72l0.619,-118.165Z"/><path d="M1429.79,1096.78l53.292,0.959c2.048,0.043 3.726,1.702 3.792,3.75l0.416,13.708c0.001,0.028 0.001,0.056 0.001,0.083c0,2.111 -1.724,3.853 -3.834,3.875l-53.708,0.292c-2.095,0.022 -3.811,1.739 -3.834,3.833l-0.166,27.625c-0.001,0.014 -0.001,0.028 -0.001,0.042c0,2.11 1.724,3.852 3.834,3.875l63.25,1.042c1.99,0.014 3.662,1.559 3.833,3.541l1.042,13.75c0.007,0.097 0.011,0.195 0.011,0.292c-0,2.114 -1.73,3.858 -3.844,3.875l-91.834,0.042c-2.126,-0 -3.875,-1.75 -3.875,-3.875c-0,-0.014 0,-0.028 0,-0.042l0.667,-122.375c0.023,-2.11 1.765,-3.834 3.875,-3.833l90.083,-0c2.095,-0.001 3.83,1.697 3.875,3.791l0.292,14.167c0,0.028 0.001,0.056 0.001,0.083c-0,2.126 -1.749,3.875 -3.875,3.875c-0.001,0 -0.001,0 -0.001,0l-63.292,-0.166c-2.126,-0 -3.875,1.749 -3.875,3.875l0.084,20.041c-0.001,2.095 1.697,3.83 3.791,3.875Z" style="fill-rule:nonzero;"/><path d="M1698.54,1150.23l-39.375,-0.084c-3.305,0 -5.403,1.598 -6.291,4.792l-5.084,18c-0.583,2.139 -1.986,3.306 -4.208,3.5l-19.375,1.625c-4.306,0.389 -5.722,-1.444 -4.25,-5.5l44,-121.583c0.707,-1.952 2.501,-3.321 4.583,-3.5c6.611,-0.556 13.236,-0.5 19.875,0.166c8.292,0.792 7.375,5.792 9.459,11.667c13.25,37.639 26.527,75.806 39.833,114.5c1.111,3.222 -0.028,4.681 -3.417,4.375l-19.708,-1.708c-1.945,-0.167 -3.222,-1.167 -3.833,-3l-6.625,-19.292c-0.816,-2.363 -3.067,-3.959 -5.584,-3.958Zm-12.333,-53.625c-1.333,-3.361 -2.403,-6.834 -3.208,-10.417c-2.223,-10.167 -4.82,-10.264 -7.792,-0.292c-3.75,12.639 -7.806,25.486 -12.167,38.542c-0.164,0.483 -0.247,0.99 -0.247,1.5c-0,2.559 2.105,4.665 4.664,4.667l24.667,-0.084c0.055,-0 0.11,-0.002 0.165,-0.006c1.437,-0.101 2.537,-1.347 2.439,-2.76c-0.005,-0.064 -0.012,-0.128 -0.021,-0.192c-1.528,-10.389 -4.361,-20.708 -8.5,-30.958Z" style="fill-rule:nonzero;"/><path d="M2084.66,1133.73c1.75,6.583 3.528,6.583 5.334,-0l22.916,-83.584c0.44,-1.572 1.868,-2.677 3.5,-2.708l21.334,-0.208c0.018,-0.001 0.035,-0.001 0.053,-0.001c1.715,0 3.125,1.411 3.125,3.125c0,0.355 -0.06,0.708 -0.178,1.042c-12.056,35.167 -23.334,70.223 -33.834,105.167c-1.972,6.556 -4.375,13.083 -7.208,19.583c-0.556,1.306 -1.542,1.945 -2.958,1.917l-21.042,-0.25c-1.488,-0.027 -2.803,-1.021 -3.25,-2.458l-38.292,-122.875c-1.083,-3.5 0.209,-5.264 3.875,-5.292l19.25,-0.083c2.717,-0.031 5.131,1.814 5.834,4.458l21.541,82.167Z" style="fill-rule:nonzero;"/><path d="M2472.25,1096.44c0.13,0.299 0.313,0.572 0.541,0.804c1.039,1.062 2.782,1.067 3.86,0.011c0.229,-0.224 0.417,-0.486 0.557,-0.773l20.375,-43.417c2.305,-4.944 6.18,-7.194 11.625,-6.75c5.222,0.417 10.333,0.403 15.333,-0.042c3.889,-0.333 4.931,1.236 3.125,4.709l-37.083,70.125c-1.671,3.149 -2.584,6.631 -2.667,10.166l-0.916,40.167c-0.084,4.194 -2.237,6.181 -6.459,5.958l-16.708,-0.916c-3.056,-0.167 -4.556,-1.778 -4.5,-4.834l0.375,-40.666c0.028,-2.629 -0.573,-5.216 -1.75,-7.542l-35.208,-70.208c-2.334,-4.639 -0.903,-6.945 4.291,-6.917l17.167,0.042c3.694,0.027 6.292,1.722 7.792,5.083l20.25,45Z" style="fill-rule:nonzero;"/><path d="M2718.71,1070.44c-0.885,0.569 -1.42,1.561 -1.417,2.625l-1.458,98.125c-0.056,4.583 -2.361,6.764 -6.917,6.542l-15.208,-0.792c-4.222,-0.222 -6.306,-2.444 -6.25,-6.667l1.292,-96.5c-0,-0.014 -0,-0.028 -0,-0.042c-0,-2.224 -1.818,-4.06 -4.042,-4.083l-30.708,-0.416c-3.528,-0.056 -5.32,-1.834 -5.375,-5.334l-0.209,-11.583c-0,-0.028 -0,-0.056 -0,-0.083c-0,-3.132 2.576,-5.709 5.708,-5.709c0,0 0,0 0.001,0l99.291,-0.25c0.036,0 0.071,0.001 0.107,0.001c2.948,0.057 5.327,2.511 5.271,5.436c-0,0.035 -0.001,0.07 -0.003,0.105l-0.375,11.625c-0.139,3.778 -2.097,5.653 -5.875,5.625c-9.889,-0.111 -20,-0.014 -30.333,0.292c-1.278,0.027 -2.445,0.389 -3.5,1.083Z" style="fill-rule:nonzero;"/><path d="M716.123,1158.28c6.805,-2.889 10.319,-8.736 10.541,-17.541c0.722,-28.695 0.875,-57.57 0.459,-86.625c-0.056,-4.417 2.125,-6.611 6.541,-6.584l14.334,0.042c4.138,0.028 6.222,2.111 6.25,6.25c0.055,26.528 0.291,54.319 0.708,83.375c0.583,39.875 -42.875,53.292 -73.833,43.125c-20.028,-6.583 -30.445,-19.653 -31.25,-39.208c-1.056,-25.167 -1.098,-54 -0.125,-86.5c0.138,-4.861 2.625,-7.292 7.458,-7.292l10.292,-0.042c5.472,-0.027 8.18,2.695 8.125,8.167c-0.25,30.139 -0,58.028 0.75,83.667c0.625,22.041 23.875,25.916 39.75,19.166Z" style="fill-rule:nonzero;"/><path d="M1242,1132.69c0.388,-0.528 0.555,-1.125 0.5,-1.792c-1.667,-26.916 -2.445,-52.625 -2.334,-77.125c-0.002,-2.643 2.109,-4.847 4.75,-4.958l18.292,-0.833c2.944,-0.139 4.375,1.264 4.292,4.208c-0.917,33.194 -1.125,67.056 -0.625,101.583c0.111,7.056 -0.209,14.334 -0.959,21.834c-0.166,1.527 -1.014,2.291 -2.541,2.291l-21.709,0.292c-1.944,-0 -3.403,-0.847 -4.375,-2.542l-47.458,-84.541c-0.198,-0.393 -0.602,-0.642 -1.042,-0.642c-0.44,0 -0.843,0.249 -1.041,0.642c-0.778,1.444 -1.167,2.986 -1.167,4.625c0.25,25.527 0.25,51.055 -0,76.583c-0.028,4 -2.042,5.944 -6.042,5.833l-12.958,-0.333c-4.25,-0.111 -6.389,-2.306 -6.417,-6.583l-0.75,-117.375c0,-3.5 1.722,-5.431 5.167,-5.792c5.667,-0.583 11.792,-0.806 18.375,-0.667c6.833,0.167 10.417,6.125 13.458,11.375c13.584,23.834 27.236,48.389 40.959,73.667c0.381,0.687 1.108,1.114 1.893,1.114c0.681,-0 1.323,-0.32 1.732,-0.864Z" style="fill-rule:nonzero;"/><path d="M1314.71,1069.69l-30.583,-0.375c-2.584,-0.016 -4.744,-2.048 -4.917,-4.625l-0.75,-11.292c-0.01,-0.125 -0.014,-0.25 -0.014,-0.375c-0,-2.709 2.221,-4.943 4.931,-4.958l99.916,-0.458c2.674,-0.001 4.891,2.16 4.959,4.833l0.25,12.083c0,0.028 0,0.056 0,0.084c0,2.704 -2.213,4.936 -4.917,4.958l-32.167,0.167c-2.704,-0 -4.935,2.212 -4.958,4.916l-0.583,98.5c-0,0.001 -0,0.002 -0,0.003c-0,2.72 -2.239,4.958 -4.959,4.958c-0.055,0 -0.111,-0.001 -0.166,-0.002l-16.959,-0.625c-2.641,-0.111 -4.752,-2.316 -4.75,-4.959l0.542,-97.875c0,-2.689 -2.187,-4.913 -4.875,-4.958Z" style="fill-rule:nonzero;"/><path d="M1592.46,1113.73c-0.639,0.248 -1.062,0.867 -1.062,1.553c-0,0.568 0.291,1.099 0.77,1.405l12.334,7.833c1.478,0.949 2.457,2.493 2.666,4.209l5.375,44.791c0.361,2.945 -0.944,4.417 -3.916,4.417l-17.5,0.125c-2.695,-0 -4.181,-1.347 -4.459,-4.042c-0.944,-9.75 -2.041,-19.958 -3.291,-30.625c-2.209,-19.125 -24.709,-19 -39.459,-17.458c-2.072,0.21 -3.677,1.959 -3.708,4.042l-0.583,42.666c-0.056,3.334 -1.75,4.986 -5.084,4.959l-15.541,-0.25c-3.806,-0.056 -5.695,-1.986 -5.667,-5.792l0.542,-120.792c-0,-1.583 0.791,-2.416 2.375,-2.5c18.277,-0.889 37.513,-1.208 57.708,-0.958c15.583,0.194 26.847,5.778 33.792,16.75c12.125,19.25 5.916,41.417 -15.292,49.667Zm-52.167,-40.792l0.084,27.917c-0,2.4 1.975,4.375 4.375,4.375l24.833,-0.042c9.943,-0.023 18.106,-7.961 18.083,-17.583l0,-1.584c-0.022,-9.619 -8.216,-17.517 -18.155,-17.5c-0.004,0 -0.008,0 -0.011,0l-24.834,0.042c-2.4,-0 -4.375,1.975 -4.375,4.375Z" style="fill-rule:nonzero;"/><path d="M1939.83,1074.32l-1.167,100.542c-0.021,2.225 -1.857,4.045 -4.083,4.045c-0.056,-0 -0.111,-0.001 -0.167,-0.004l-18.541,-0.791c-2.193,-0.09 -3.941,-1.931 -3.917,-4.125l0.625,-98.917c0.001,-2.194 -1.766,-4.016 -3.958,-4.083l-32.709,-0.75c-2.194,-0.065 -3.964,-1.887 -3.964,-4.082c0,-0.07 0.002,-0.14 0.006,-0.21l0.792,-14c0.13,-2.129 1.908,-3.816 4.041,-3.833l100.125,-0.5c0.002,-0 0.004,-0 0.006,-0c2.24,-0 4.083,1.843 4.083,4.083c-0,0.069 -0.002,0.139 -0.005,0.208l-0.875,14.625c-0.132,2.145 -1.935,3.838 -4.084,3.834l-32.125,-0.084c-2.224,0 -4.06,1.818 -4.083,4.042Z" style="fill-rule:nonzero;"/><path d="M2183.54,1097.86l49.292,0.458c5.972,0.056 8.903,3.056 8.792,9l-0.042,4.5c-0.111,5.667 -3.014,8.542 -8.708,8.625l-51.417,0.583c-1.722,0.028 -2.583,0.903 -2.583,2.625l-0.292,28.959c-0,1.777 0.889,2.68 2.667,2.708l63.25,0.75c4.388,0.028 6.597,2.25 6.625,6.667l0.041,9.125c0.028,4.639 -2.278,6.958 -6.916,6.958l-87.417,-0.25c-3.695,-0.028 -5.528,-1.889 -5.5,-5.583l0.875,-122.417c0.023,-1.584 1.313,-2.875 2.875,-2.875l91.833,0.375c2.361,-0 3.528,1.181 3.5,3.542l-0.291,15.791c-0.023,1.082 -0.919,1.959 -2,1.959l-64.25,0.416c-3.028,0.028 -4.542,1.556 -4.542,4.584l-0.125,19.083c-0,2.917 1.444,4.389 4.333,4.417Z" style="fill-rule:nonzero;"/><path d="M973.331,1097.11c2,-0.389 3.694,-1.306 5.083,-2.75c13.417,-14.028 26.778,-28.348 40.084,-42.959c1.115,-1.247 2.702,-1.972 4.375,-2l24.916,-0.625c3.722,-0.083 4.306,1.223 1.75,3.917l-43.25,45.792c-1.184,1.24 -1.342,3.148 -0.375,4.541l48.709,71.709c2.027,2.972 1.236,4.444 -2.375,4.416l-19.459,-0.125c-4.078,-0.025 -7.884,-2.092 -10.125,-5.5l-33.5,-51.041c-0.879,-1.323 -2.366,-2.12 -3.955,-2.12c-1.076,0 -2.12,0.366 -2.961,1.036c-6.167,4.917 -10.584,9.167 -10.542,17.917c0.083,11.722 -0.236,23.375 -0.958,34.958c-0.167,3 -1.75,4.528 -4.75,4.584l-13.959,0.291c-0.055,0.002 -0.111,0.002 -0.166,0.002c-3.726,0 -6.792,-3.066 -6.792,-6.791c-0,-0.001 -0,-0.002 -0,-0.002l-0.042,-118.417c0,-3.278 1.639,-4.944 4.917,-5l15.917,-0.292c3.583,-0.083 5.375,1.667 5.375,5.25l0.083,41.542c-0,1.361 0.667,1.917 2,1.667Z" style="fill-rule:nonzero;"/></g></svg>